<?xml version="1.0" encoding="UTF-8" standalone="no"?>
<svg
   width="146.41483mm"
   height="174.53728mm"
   viewBox="0 0 146.41482 174.53728"
   version="1.1"
   id="svg5"
   xml:space="preserve"
   inkscape:version="1.2.1 (9c6d41e410, 2022-07-14)"
   sodipodi:docname="tv.svg"
   xmlns:inkscape="http://www.inkscape.org/namespaces/inkscape"
   xmlns:sodipodi="http://sodipodi.sourceforge.net/DTD/sodipodi-0.dtd"
   xmlns="http://www.w3.org/2000/svg"
   xmlns:svg="http://www.w3.org/2000/svg"><sodipodi:namedview
     id="namedview7"
     pagecolor="#505050"
     bordercolor="#ffffff"
     borderopacity="1"
     inkscape:showpageshadow="0"
     inkscape:pageopacity="0"
     inkscape:pagecheckerboard="1"
     inkscape:deskcolor="#505050"
     inkscape:document-units="mm"
     showgrid="false"
     inkscape:zoom="0.64693624"
     inkscape:cx="50.23679"
     inkscape:cy="263.54993"
     inkscape:window-width="2560"
     inkscape:window-height="1361"
     inkscape:window-x="-9"
     inkscape:window-y="-9"
     inkscape:window-maximized="1"
     inkscape:current-layer="layer1" /><defs
     id="defs2" /><g
     inkscape:label="Layer 1"
     inkscape:groupmode="layer"
     id="layer1"
     transform="translate(-208.99963,41.560561)"><path
       id="rect3100"
       style="fill:#212427;stroke-width:1.3;stroke-linecap:round;stroke-linejoin:round;paint-order:markers fill stroke"
       d="m 235.222,-36.321557 c -0.64639,0.340563 -0.15436,2.545151 0.1862,3.191549 0.24317,0.461545 0.72042,0.719843 1.20893,0.705906 l 29.88063,58.82557 2.84498,-1.036882 -31.78319,-58.22388 c 0.36198,-0.400205 0.45562,-0.998848 0.18947,-1.503999 -0.34056,-0.646401 -1.88062,-2.298827 -2.52702,-1.958264 z"
       inkscape:transform-center-x="15.034752"
       inkscape:transform-center-y="-28.763511" /><path
       id="rect3100-6"
       style="fill:#212427;stroke-width:1.3;stroke-linecap:round;stroke-linejoin:round;paint-order:markers fill stroke"
       d="m 307.36107,-37.405616 c -0.65544,-0.322815 -2.14991,1.370956 -2.47273,2.026393 -0.2305,0.468001 -0.15898,1.005938 0.1394,1.392981 l -30.03194,58.748464 2.51097,1.692367 28.42695,-59.934129 c 0.53653,0.05765 1.07591,-0.218424 1.32819,-0.73064 0.32282,-0.655441 0.7546,-2.872615 0.0992,-3.195436 z"
       inkscape:transform-center-x="-13.982609"
       inkscape:transform-center-y="-29.070765" /><path
       id="rect430"
       style="fill:#212427;fill-opacity:1;stroke-width:0.665623;stroke-linecap:round;stroke-linejoin:round;paint-order:markers fill stroke"
       d="m 211.99996,24.188524 c -1.662,0 -3.00033,0.638428 -3.00033,1.431438 0,0.793009 1.33833,1.431437 3.00033,1.431437 h 140.41417 c 1.662,0 3.00033,-0.638428 3.00033,-1.431437 0,-0.79301 -1.33833,-1.431438 -3.00033,-1.431438 z m 70.21691,3.477824 c -74.78001,0 -69.54859,-0.08719 -70.11562,1.157552 -0.39126,0.858914 -0.34959,93.36701 0.0424,94.07436 0.62951,1.13602 -3.92596,1.06628 70.0102,1.07435 52.84034,0.005 68.8466,-0.0511 69.27329,-0.24546 h 5.2e-4 c 1.23626,-0.56339 1.15755,2.66855 1.15755,-47.883897 0,-35.572978 -0.0591,-46.594417 -0.2527,-47.019353 -0.56704,-1.244739 4.66434,-1.157552 -70.11561,-1.157552 z m 48.23839,5.338693 h 18.81281 v 0.79375 h -18.81281 z m 0,1.5875 h 18.81281 v 0.79375 h -18.81281 z m 0,1.5875 h 18.81281 v 0.79375 h -18.81281 z m 0,1.5875 h 18.81281 v 0.79375 h -18.81281 z m 0,1.5875 h 18.81281 v 0.79375 h -18.81281 z m 0,1.5875 h 18.81281 v 0.79375 h -18.81281 z m 0,1.5875 h 18.81281 v 0.79375 h -18.81281 z m 0,1.5875 h 18.81281 v 0.79375 h -18.81281 z m 0,1.5875 h 18.81281 v 0.79375 h -18.81281 z m 0,1.5875 h 18.81281 v 0.79375 h -18.81281 z m 0,1.5875 h 18.81281 v 0.79375 h -18.81281 z m 0,1.5875 h 18.81281 v 0.79375 h -18.81281 z m 0,1.5875 h 18.81281 v 0.79375 h -18.81281 z m 0,1.5875 h 18.81281 v 0.79375 h -18.81281 z m 0,1.5875 h 18.81281 v 0.79375 h -18.81281 z m 0,1.5875 h 18.81281 v 0.79375 h -18.81281 z m 0,1.5875 h 18.81281 v 0.79375 h -18.81281 z m 0,1.5875 h 18.81281 v 0.79375 h -18.81281 z m 0,1.5875 h 18.81281 v 0.79375 h -18.81281 z m 0,1.5875 h 18.81281 v 0.79375 h -18.81281 z m 0,1.5875 h 18.81281 v 0.79375 h -18.81281 z m 0,1.5875 h 18.81281 v 0.79375 h -18.81281 z m 0,1.5875 h 18.81281 v 0.79375 h -18.81281 z m 0,1.5875 h 18.81281 v 0.79375 h -18.81281 z m 0,1.5875 h 18.81281 v 0.79375 h -18.81281 z m 0,1.5875 h 18.81281 v 0.79375 h -18.81281 z m 0,1.5875 h 18.81281 v 0.79375 h -18.81281 z m 0,1.5875 h 18.81281 v 0.79375 h -18.81281 z m 0,1.5875 h 18.81281 v 0.79375 h -18.81281 z m 0,1.5875 h 18.81281 v 0.79375 h -18.81281 z m 0,1.5875 h 18.81281 v 0.79375 h -18.81281 z m 0,1.5875 h 18.81281 v 0.79375 h -18.81281 z m 0,1.5875 h 18.81281 v 35.494469 h -18.81281 z m 16.54008,1.835546 a 1.3229166,1.3229166 0 0 0 -1.32292,1.322917 1.3229166,1.3229166 0 0 0 1.32292,1.322917 1.3229166,1.3229166 0 0 0 1.32292,-1.322917 1.3229166,1.3229166 0 0 0 -1.32292,-1.322917 z m 0,0.396875 a 0.92604166,0.92604166 0 0 1 0.92604,0.926042 0.92604166,0.92604166 0 0 1 -0.92604,0.926042 0.92604166,0.92604166 0 0 1 -0.92604,-0.926042 0.92604166,0.92604166 0 0 1 0.92604,-0.926042 z m -8.816,2.67684 a 5.2916665,5.2916665 0 0 0 -5.29167,5.291666 5.2916665,5.2916665 0 0 0 5.29167,5.291667 5.2916665,5.2916665 0 0 0 5.29167,-5.291667 5.2916665,5.2916665 0 0 0 -5.29167,-5.291666 z m 0,0.396875 a 4.8947916,4.8947916 0 0 1 4.89479,4.894791 4.8947916,4.8947916 0 0 1 -4.89479,4.894792 4.8947916,4.8947916 0 0 1 -4.89479,-4.894792 4.8947916,4.8947916 0 0 1 4.89479,-4.894791 z m 0,0.396875 a 4.4979167,4.4979167 0 0 0 -4.49792,4.497916 4.4979167,4.4979167 0 0 0 4.49792,4.497917 4.4979167,4.4979167 0 0 0 4.49792,-4.497917 4.4979167,4.4979167 0 0 0 -4.49792,-4.497916 z m 8.816,0.853694 a 1.3229166,1.3229166 0 0 0 -1.32292,1.322917 1.3229166,1.3229166 0 0 0 1.32292,1.322917 1.3229166,1.3229166 0 0 0 1.32292,-1.322917 1.3229166,1.3229166 0 0 0 -1.32292,-1.322917 z m 0,0.396875 a 0.92604166,0.92604166 0 0 1 0.92604,0.926042 0.92604166,0.92604166 0 0 1 -0.92604,0.926042 0.92604166,0.92604166 0 0 1 -0.92604,-0.926042 0.92604166,0.92604166 0 0 1 0.92604,-0.926042 z m 0,4.323767 a 1.3229166,1.3229166 0 0 0 -1.32292,1.322917 1.3229166,1.3229166 0 0 0 1.32292,1.322917 1.3229166,1.3229166 0 0 0 1.32292,-1.322917 1.3229166,1.3229166 0 0 0 -1.32292,-1.322917 z m 0,0.396875 a 0.92604166,0.92604166 0 0 1 0.92604,0.926042 0.92604166,0.92604166 0 0 1 -0.92604,0.926042 0.92604166,0.92604166 0 0 1 -0.92604,-0.926042 0.92604166,0.92604166 0 0 1 0.92604,-0.926042 z m 0,4.323767 a 1.3229166,1.3229166 0 0 0 -1.32292,1.32292 1.3229166,1.3229166 0 0 0 1.32292,1.32291 1.3229166,1.3229166 0 0 0 1.32292,-1.32291 1.3229166,1.3229166 0 0 0 -1.32292,-1.32292 z m 0,0.39688 a 0.92604166,0.92604166 0 0 1 0.92604,0.92604 0.92604166,0.92604166 0 0 1 -0.92604,0.92604 0.92604166,0.92604166 0 0 1 -0.92604,-0.92604 0.92604166,0.92604166 0 0 1 0.92604,-0.92604 z m -8.816,2.93005 a 5.2916665,5.2916665 0 0 0 -5.29167,5.29167 5.2916665,5.2916665 0 0 0 5.29167,5.29166 5.2916665,5.2916665 0 0 0 5.29167,-5.29166 5.2916665,5.2916665 0 0 0 -5.29167,-5.29167 z m 0,0.39687 a 4.8947916,4.8947916 0 0 1 4.89479,4.8948 4.8947916,4.8947916 0 0 1 -4.89479,4.89479 4.8947916,4.8947916 0 0 1 -4.89479,-4.89479 4.8947916,4.8947916 0 0 1 4.89479,-4.8948 z m 0,0.39688 a 4.4979167,4.4979167 0 0 0 -4.49792,4.49792 4.4979167,4.4979167 0 0 0 4.49792,4.49791 4.4979167,4.4979167 0 0 0 4.49792,-4.49791 4.4979167,4.4979167 0 0 0 -4.49792,-4.49792 z m 8.816,0.60048 a 1.3229166,1.3229166 0 0 0 -1.32292,1.32292 1.3229166,1.3229166 0 0 0 1.32292,1.32291 1.3229166,1.3229166 0 0 0 1.32292,-1.32291 1.3229166,1.3229166 0 0 0 -1.32292,-1.32292 z m 0,0.39687 a 0.92604166,0.92604166 0 0 1 0.92604,0.92605 0.92604166,0.92604166 0 0 1 -0.92604,0.92604 0.92604166,0.92604166 0 0 1 -0.92604,-0.92604 0.92604166,0.92604166 0 0 1 0.92604,-0.92605 z m 0,4.32377 a 1.3229166,1.3229166 0 0 0 -1.32292,1.32292 1.3229166,1.3229166 0 0 0 1.32292,1.32291 1.3229166,1.3229166 0 0 0 1.32292,-1.32291 1.3229166,1.3229166 0 0 0 -1.32292,-1.32292 z m 0,0.39688 a 0.92604166,0.92604166 0 0 1 0.92604,0.92604 0.92604166,0.92604166 0 0 1 -0.92604,0.92604 0.92604166,0.92604166 0 0 1 -0.92604,-0.92604 0.92604166,0.92604166 0 0 1 0.92604,-0.92604 z m 0,4.32376 a 1.3229166,1.3229166 0 0 0 -1.32292,1.32292 1.3229166,1.3229166 0 0 0 1.32292,1.32292 1.3229166,1.3229166 0 0 0 1.32292,-1.32292 1.3229166,1.3229166 0 0 0 -1.32292,-1.32292 z m 0,0.39688 a 0.92604166,0.92604166 0 0 1 0.92604,0.92604 0.92604166,0.92604166 0 0 1 -0.92604,0.92604 0.92604166,0.92604166 0 0 1 -0.92604,-0.92604 0.92604166,0.92604166 0 0 1 0.92604,-0.92604 z m -134.99538,11.45718 c -1.662,0 -3.00033,0.63843 -3.00033,1.43144 0,0.79301 1.33833,1.43143 3.00033,1.43143 h 140.41417 c 1.662,0 3.00033,-0.63842 3.00033,-1.43143 0,-0.79301 -1.33833,-1.43144 -3.00033,-1.43144 z m 7.95972,4.29431 c -1.44612,0 -2.61069,0.63843 -2.61069,1.43144 0,0.79301 1.16457,1.43144 2.61069,1.43144 h 122.17601 c 1.44612,0 2.61018,-0.63843 2.61018,-1.43144 0,-0.79301 -1.16406,-1.43144 -2.61018,-1.43144 z" /></g></svg>
